<svg width="16" height="16" viewBox="0 0 16 16" fill="none" xmlns="http://www.w3.org/2000/svg">
    <path fill-rule="evenodd" clip-rule="evenodd" d="M4.70983 13.8267C5.08484 14.2492 5.68486 14.2517 6.06486 13.9217C6.44487 13.5917 6.48986 12.9466 6.15987 12.5666L3.06982 9.03665H15.04C15.57 9.03665 16 8.60662 16 8.07663C16 7.54663 15.57 7.11661 15.04 7.11661H3.06982L6.15987 3.58662C6.48986 3.20661 6.43612 2.57034 6.06486 2.23158C5.67612 1.87657 5.03985 1.94658 4.70983 2.32659L0.22974 7.44669C-0.0852681 7.8667 -0.0677669 8.33922 0.22974 8.70672L4.70983 13.8267Z" fill="black"/>
    <mask id="mask0" mask-type="alpha" maskUnits="userSpaceOnUse" x="0" y="2" width="16" height="13">
        <path fill-rule="evenodd" clip-rule="evenodd" d="M4.70983 13.8267C5.08484 14.2492 5.68486 14.2517 6.06486 13.9217C6.44487 13.5917 6.48986 12.9466 6.15987 12.5666L3.06982 9.03665H15.04C15.57 9.03665 16 8.60662 16 8.07663C16 7.54663 15.57 7.11661 15.04 7.11661H3.06982L6.15987 3.58662C6.48986 3.20661 6.43612 2.57034 6.06486 2.23158C5.67612 1.87657 5.03985 1.94658 4.70983 2.32659L0.22974 7.44669C-0.0852681 7.8667 -0.0677669 8.33922 0.22974 8.70672L4.70983 13.8267Z" fill="white"/>
    </mask>
    <g mask="url(#mask0)">
        <rect width="16" height="16" fill="#FFCC3E"/>
    </g>
</svg>
