<svg width="16" height="16" viewBox="0 0 16 16" fill="none" xmlns="http://www.w3.org/2000/svg">
    <path d="M8 5.85C7.2 5.85 6.5 5.15 6.5 4.35C6.5 3.5 7.2 2.85 8 2.85C8.85 2.85 9.5 3.55 9.5 4.35C9.5 5.15 8.8 5.85 8 5.85ZM9.25 12.45C9.25 12.85 8.9 13.2 8.5 13.2H7.4C7 13.2 6.65 12.85 6.65 12.45V7.8C6.65 7.4 7 7.05 7.4 7.05H8.5C8.9 7.05 9.25 7.4 9.25 7.8V12.45ZM8 0C12.45 0 16 3.55 16 8C16 12.45 12.45 16 8 16C3.55 16 0 12.45 0 8C0 3.55 3.55 0 8 0ZM8 1C4.1065 1 1 4.1065 1 8C1 11.8935 4.1065 15 8 15C11.894 15 15 11.894 15 8C15 4.106 11.894 1 8 1Z" fill="#424242"/>
</svg>
